<?xml version="1.0" encoding="UTF-8"?>
<!DOCTYPE svg PUBLIC "-//W3C//DTD SVG 1.1//EN" "http://www.w3.org/Graphics/SVG/1.1/DTD/svg11.dtd">
<svg xmlns="http://www.w3.org/2000/svg" version="1.1" width="64px" height="64px" style="shape-rendering:geometricPrecision; text-rendering:geometricPrecision; image-rendering:optimizeQuality; fill-rule:evenodd; clip-rule:evenodd" xmlns:xlink="http://www.w3.org/1999/xlink">
<g><path style="opacity:0.996" fill="#7a9cb7" d="M 34.5,-0.5 C 38.5,-0.5 42.5,-0.5 46.5,-0.5C 48.0725,0.687286 49.7392,1.68729 51.5,2.5C 50.609,3.10978 49.609,3.44312 48.5,3.5C 46.5544,4.03472 45.5544,5.36805 45.5,7.5C 44.2089,6.45834 44.2089,5.29167 45.5,4C 41.4228,1.95137 37.0894,1.11804 32.5,1.5C 33.1667,0.833333 33.8333,0.166667 34.5,-0.5 Z"/></g>
<g><path style="opacity:0.988" fill="#c9d5c5" d="M 32.5,1.5 C 37.0894,1.11804 41.4228,1.95137 45.5,4C 44.2089,5.29167 44.2089,6.45834 45.5,7.5C 44.9066,10.5959 45.9066,12.9292 48.5,14.5C 47.675,15.3857 46.675,15.719 45.5,15.5C 45.5858,14.5041 45.2524,13.6708 44.5,13C 42.8988,12.7266 41.3988,12.2266 40,11.5C 39.342,9.89201 39.842,8.72535 41.5,8C 41.1667,7.66667 40.8333,7.33333 40.5,7C 36.2868,5.58805 31.9535,5.08805 27.5,5.5C 28.1098,4.60895 28.4431,3.60895 28.5,2.5C 29.7079,1.76589 31.0413,1.43255 32.5,1.5 Z"/></g>
<g><path style="opacity:0.004" fill="#fffebe" d="M 63.5,4.5 C 63.5,6.5 63.5,8.5 63.5,10.5C 62.1667,8.5 62.1667,6.5 63.5,4.5 Z"/></g>
<g><path style="opacity:0.984" fill="#e3e996" d="M 27.5,5.5 C 31.9535,5.08805 36.2868,5.58805 40.5,7C 40.8333,7.33333 41.1667,7.66667 41.5,8C 39.842,8.72535 39.342,9.89201 40,11.5C 41.3988,12.2266 42.8988,12.7266 44.5,13C 45.2524,13.6708 45.5858,14.5041 45.5,15.5C 43.4667,18.1814 40.8,20.1814 37.5,21.5C 37.1558,18.4377 36.4891,15.4377 35.5,12.5C 34.6143,13.325 34.281,14.325 34.5,15.5C 32.8333,15.5 31.1667,15.5 29.5,15.5C 29.4802,13.857 30.1468,12.5237 31.5,11.5C 30.3112,10.5713 28.9778,10.238 27.5,10.5C 26.506,8.66558 26.506,6.99891 27.5,5.5 Z"/></g>
<g><path style="opacity:0.983" fill="#819d28" d="M 28.5,2.5 C 28.4431,3.60895 28.1098,4.60895 27.5,5.5C 26.506,6.99891 26.506,8.66558 27.5,10.5C 26.5222,10.811 25.8555,11.4777 25.5,12.5C 27.3362,15.5923 27.6696,18.9257 26.5,22.5C 29.8067,23.0508 33.1401,23.3841 36.5,23.5C 35.3995,24.6049 34.7329,25.9382 34.5,27.5C 33.6522,28.625 32.6522,28.625 31.5,27.5C 29.1047,26.1857 26.6047,26.1857 24,27.5C 22.7292,26.1175 21.2292,25.1175 19.5,24.5C 19.5,24.1667 19.5,23.8333 19.5,23.5C 19.3396,20.1165 19.673,16.7831 20.5,13.5C 22.3929,11.0476 23.7263,8.38089 24.5,5.5C 25.6366,4.21119 26.9699,3.21119 28.5,2.5 Z"/></g>
<g><path style="opacity:0.376" fill="#d6e484" d="M 18.5,12.5 C 19.8333,13.1667 19.8333,13.8333 18.5,14.5C 13.3668,15.9637 9.36679,18.9637 6.5,23.5C 2.71653,25.9622 1.71653,29.2955 3.5,33.5C 2.88258,33.3893 2.38258,33.056 2,32.5C 1.50649,34.1341 1.33982,35.8008 1.5,37.5C 0.833333,36.8333 0.166667,36.1667 -0.5,35.5C -0.5,32.8333 -0.5,30.1667 -0.5,27.5C 3.26204,20.0139 9.09537,14.6805 17,11.5C 17.3826,12.056 17.8826,12.3893 18.5,12.5 Z"/></g>
<g><path style="opacity:0.984" fill="#a4c33d" d="M 27.5,10.5 C 28.9778,10.238 30.3112,10.5713 31.5,11.5C 30.1468,12.5237 29.4802,13.857 29.5,15.5C 31.1667,15.5 32.8333,15.5 34.5,15.5C 34.281,14.325 34.6143,13.325 35.5,12.5C 36.4891,15.4377 37.1558,18.4377 37.5,21.5C 36.6618,21.8417 36.3284,22.5084 36.5,23.5C 33.1401,23.3841 29.8067,23.0508 26.5,22.5C 27.6696,18.9257 27.3362,15.5923 25.5,12.5C 25.8555,11.4777 26.5222,10.811 27.5,10.5 Z"/></g>
<g><path style="opacity:0.984" fill="#497bd6" d="M 51.5,2.5 C 51.8333,2.5 52.1667,2.5 52.5,2.5C 59.1486,11.8444 57.482,19.3444 47.5,25C 43.6891,26.7387 39.6891,27.572 35.5,27.5C 35.1667,27.5 34.8333,27.5 34.5,27.5C 34.7329,25.9382 35.3995,24.6049 36.5,23.5C 48.266,21.588 52.266,14.9214 48.5,3.5C 49.609,3.44312 50.609,3.10978 51.5,2.5 Z"/></g>
<g><path style="opacity:0.996" fill="#6a714b" d="M 24.5,5.5 C 23.7263,8.38089 22.3929,11.0476 20.5,13.5C 19.673,16.7831 19.3396,20.1165 19.5,23.5C 18.5084,23.6716 17.8417,23.3382 17.5,22.5C 18.0916,19.8728 18.4249,17.2062 18.5,14.5C 19.8333,13.8333 19.8333,13.1667 18.5,12.5C 20.2733,9.94013 22.2733,7.60679 24.5,5.5 Z"/></g>
<g><path style="opacity:0.98" fill="#79b9f6" d="M 48.5,3.5 C 52.266,14.9214 48.266,21.588 36.5,23.5C 36.3284,22.5084 36.6618,21.8417 37.5,21.5C 40.8,20.1814 43.4667,18.1814 45.5,15.5C 46.675,15.719 47.675,15.3857 48.5,14.5C 45.9066,12.9292 44.9066,10.5959 45.5,7.5C 45.5544,5.36805 46.5544,4.03472 48.5,3.5 Z"/></g>
<g><path style="opacity:0.984" fill="#365ba2" d="M 52.5,2.5 C 54.1911,3.86368 55.8577,5.19701 57.5,6.5C 57.4734,9.22976 58.1401,11.7298 59.5,14C 56.5623,23.4464 50.229,28.6131 40.5,29.5C 40.2172,30.2891 39.7172,30.9558 39,31.5C 37.9681,29.9733 36.8014,28.64 35.5,27.5C 39.6891,27.572 43.6891,26.7387 47.5,25C 57.482,19.3444 59.1486,11.8444 52.5,2.5 Z"/></g>
<g><path style="opacity:0.358" fill="#df7254" d="M 18.5,14.5 C 18.4249,17.2062 18.0916,19.8728 17.5,22.5C 16.6618,22.8417 16.3284,23.5084 16.5,24.5C 15.5041,24.4142 14.6708,24.7476 14,25.5C 12.3183,30.419 13.8183,33.7524 18.5,35.5C 20.3718,37.6037 22.7052,38.937 25.5,39.5C 25.8333,39.5 26.1667,39.5 26.5,39.5C 26.5,39.8333 26.5,40.1667 26.5,40.5C 14.8001,40.4511 8.13344,34.7844 6.5,23.5C 9.36679,18.9637 13.3668,15.9637 18.5,14.5 Z"/></g>
<g><path style="opacity:0.984" fill="#223760" d="M 57.5,6.5 C 59.9974,8.84395 61.9974,11.5106 63.5,14.5C 63.5,15.1667 63.5,15.8333 63.5,16.5C 61.7351,20.1872 60.5684,24.1872 60,28.5C 57.9307,29.2638 55.764,29.7638 53.5,30C 52.944,30.3826 52.6107,30.8826 52.5,31.5C 48.8212,31.7244 45.1545,32.0578 41.5,32.5C 41.1667,32.5 40.8333,32.5 40.5,32.5C 41.0906,31.8485 41.7573,31.1818 42.5,30.5C 42.0431,29.7025 41.3764,29.3691 40.5,29.5C 50.229,28.6131 56.5623,23.4464 59.5,14C 58.1401,11.7298 57.4734,9.22976 57.5,6.5 Z"/></g>
<g><path style="opacity:0.988" fill="#4c6635" d="M 19.5,24.5 C 21.2292,25.1175 22.7292,26.1175 24,27.5C 26.6047,26.1857 29.1047,26.1857 31.5,27.5C 29.4727,27.3379 27.4727,27.5045 25.5,28C 26.4158,28.2784 27.0825,28.7784 27.5,29.5C 25.5759,29.7107 25.2426,30.3774 26.5,31.5C 26.5,34.1667 26.5,36.8333 26.5,39.5C 26.1667,39.5 25.8333,39.5 25.5,39.5C 25.6633,37.1432 25.4966,34.8098 25,32.5C 22.1755,30.5514 20.3422,27.8847 19.5,24.5 Z"/></g>
<g><path style="opacity:0.984" fill="#3d5b6f" d="M 31.5,27.5 C 32.6522,28.625 33.6522,28.625 34.5,27.5C 34.8333,27.5 35.1667,27.5 35.5,27.5C 36.8014,28.64 37.9681,29.9733 39,31.5C 39.7172,30.9558 40.2172,30.2891 40.5,29.5C 41.3764,29.3691 42.0431,29.7025 42.5,30.5C 41.7573,31.1818 41.0906,31.8485 40.5,32.5C 36.1057,31.6509 31.7723,30.6509 27.5,29.5C 27.0825,28.7784 26.4158,28.2784 25.5,28C 27.4727,27.5045 29.4727,27.3379 31.5,27.5 Z"/></g>
<g><path style="opacity:0.985" fill="#1a1d11" d="M 63.5,16.5 C 63.5,21.8333 63.5,27.1667 63.5,32.5C 62.2632,33.9649 61.2632,35.6316 60.5,37.5C 58.7085,37.634 57.0418,37.3007 55.5,36.5C 55.5106,34.9826 56.1772,33.8159 57.5,33C 56.3333,32.5 55.5,31.6667 55,30.5C 54.3292,31.2524 53.4959,31.5858 52.5,31.5C 52.6107,30.8826 52.944,30.3826 53.5,30C 55.764,29.7638 57.9307,29.2638 60,28.5C 60.5684,24.1872 61.7351,20.1872 63.5,16.5 Z"/></g>
<g><path style="opacity:1" fill="#1b2336" d="M 17.5,22.5 C 17.8417,23.3382 18.5084,23.6716 19.5,23.5C 19.5,23.8333 19.5,24.1667 19.5,24.5C 20.3422,27.8847 22.1755,30.5514 25,32.5C 25.4966,34.8098 25.6633,37.1432 25.5,39.5C 22.7052,38.937 20.3718,37.6037 18.5,35.5C 17.3578,31.9288 16.6911,28.2621 16.5,24.5C 16.3284,23.5084 16.6618,22.8417 17.5,22.5 Z"/></g>
<g><path style="opacity:0.984" fill="#2c3b10" d="M 55.5,36.5 C 51.8463,35.8362 48.1796,35.1695 44.5,34.5C 42.9704,34.3601 41.9704,33.6935 41.5,32.5C 45.1545,32.0578 48.8212,31.7244 52.5,31.5C 53.4959,31.5858 54.3292,31.2524 55,30.5C 55.5,31.6667 56.3333,32.5 57.5,33C 56.1772,33.8159 55.5106,34.9826 55.5,36.5 Z"/></g>
<g><path style="opacity:1" fill="#35cf2b" d="M 27.5,29.5 C 31.7723,30.6509 36.1057,31.6509 40.5,32.5C 40.8333,32.5 41.1667,32.5 41.5,32.5C 41.9704,33.6935 42.9704,34.3601 44.5,34.5C 48.1796,35.1695 51.8463,35.8362 55.5,36.5C 57.0418,37.3007 58.7085,37.634 60.5,37.5C 61.1667,37.5 61.8333,37.5 62.5,37.5C 59.8132,39.3233 56.8132,40.6566 53.5,41.5C 49.1318,42.288 44.7985,43.288 40.5,44.5C 39.0755,44.3767 37.7421,44.0434 36.5,43.5C 33.6409,39.1216 30.3075,35.1216 26.5,31.5C 25.2426,30.3774 25.5759,29.7107 27.5,29.5 Z"/></g>
<g><path style="opacity:1" fill="#e0e23d" d="M 6.5,23.5 C 8.13344,34.7844 14.8001,40.4511 26.5,40.5C 26.5,41.5 26.5,42.5 26.5,43.5C 23.8333,43.5 21.1667,43.5 18.5,43.5C 12.0415,42.432 7.04146,39.0987 3.5,33.5C 1.71653,29.2955 2.71653,25.9622 6.5,23.5 Z"/></g>
<g><path style="opacity:1" fill="#3ad92b" d="M 3.5,33.5 C 7.04146,39.0987 12.0415,42.432 18.5,43.5C 17.4855,44.7647 15.9855,45.4313 14,45.5C 11.2248,45.5908 8.72477,44.9241 6.5,43.5C 4.10973,42.1092 2.44306,40.1092 1.5,37.5C 1.33982,35.8008 1.50649,34.1341 2,32.5C 2.38258,33.056 2.88258,33.3893 3.5,33.5 Z"/></g>
<g><path style="opacity:0.758" fill="#042b01" d="M 62.5,37.5 C 62.8333,37.5 63.1667,37.5 63.5,37.5C 63.5,38.8333 63.5,40.1667 63.5,41.5C 58.7226,44.0597 54.0559,46.893 49.5,50C 43.7537,54.5223 38.087,59.0223 32.5,63.5C 32.1667,63.5 31.8333,63.5 31.5,63.5C 31.4332,61.5992 31.7665,59.7659 32.5,58C 35.4506,54.2662 37.4506,50.0996 38.5,45.5C 43.9108,45.3575 48.9108,44.0242 53.5,41.5C 56.8132,40.6566 59.8132,39.3233 62.5,37.5 Z"/></g>
<g><path style="opacity:0.49" fill="#8096c2" d="M -0.5,35.5 C 0.166667,36.1667 0.833333,36.8333 1.5,37.5C 2.44306,40.1092 4.10973,42.1092 6.5,43.5C 6.5,43.8333 6.5,44.1667 6.5,44.5C 5.50278,44.4701 4.83611,44.9701 4.5,46C 5.14758,47.4397 5.48091,48.9397 5.5,50.5C 3.26321,48.3529 1.26321,46.0196 -0.5,43.5C -0.5,40.8333 -0.5,38.1667 -0.5,35.5 Z"/></g>
<g><path style="opacity:1" fill="#0f5d0f" d="M 53.5,41.5 C 48.9108,44.0242 43.9108,45.3575 38.5,45.5C 37.4506,50.0996 35.4506,54.2662 32.5,58C 31.7665,59.7659 31.4332,61.5992 31.5,63.5C 31.1667,63.5 30.8333,63.5 30.5,63.5C 29.8698,61.2504 28.8698,59.2504 27.5,57.5C 28.388,54.9455 28.7214,52.2788 28.5,49.5C 24.4862,49.6655 20.4862,49.4988 16.5,49C 15.5842,48.7216 14.9175,48.2216 14.5,47.5C 18.2017,47.579 21.8683,47.2457 25.5,46.5C 29.5908,48.3499 33.2575,47.3499 36.5,43.5C 37.7421,44.0434 39.0755,44.3767 40.5,44.5C 44.7985,43.288 49.1318,42.288 53.5,41.5 Z"/></g>
<g><path style="opacity:1" fill="#2d7e24" d="M 26.5,31.5 C 30.3075,35.1216 33.6409,39.1216 36.5,43.5C 33.2575,47.3499 29.5908,48.3499 25.5,46.5C 21.8683,47.2457 18.2017,47.579 14.5,47.5C 11.3855,47.6061 8.71879,46.6061 6.5,44.5C 6.5,44.1667 6.5,43.8333 6.5,43.5C 8.72477,44.9241 11.2248,45.5908 14,45.5C 15.9855,45.4313 17.4855,44.7647 18.5,43.5C 21.1667,43.5 23.8333,43.5 26.5,43.5C 26.5,42.5 26.5,41.5 26.5,40.5C 26.5,40.1667 26.5,39.8333 26.5,39.5C 26.5,36.8333 26.5,34.1667 26.5,31.5 Z"/></g>
<g><path style="opacity:1" fill="#24388a" d="M 6.5,44.5 C 8.71879,46.6061 11.3855,47.6061 14.5,47.5C 14.9175,48.2216 15.5842,48.7216 16.5,49C 20.4862,49.4988 24.4862,49.6655 28.5,49.5C 28.7214,52.2788 28.388,54.9455 27.5,57.5C 18.9733,58.4107 11.64,56.0773 5.5,50.5C 5.48091,48.9397 5.14758,47.4397 4.5,46C 4.83611,44.9701 5.50278,44.4701 6.5,44.5 Z"/></g>
</svg>
