<?xml version="1.0" encoding="UTF-8"?>
<!DOCTYPE svg PUBLIC "-//W3C//DTD SVG 1.1//EN" "http://www.w3.org/Graphics/SVG/1.1/DTD/svg11.dtd">
<svg xmlns="http://www.w3.org/2000/svg" version="1.1" width="512px" height="512px" style="shape-rendering:geometricPrecision; text-rendering:geometricPrecision; image-rendering:optimizeQuality; fill-rule:evenodd; clip-rule:evenodd" xmlns:xlink="http://www.w3.org/1999/xlink">
<g><path style="opacity:1" fill="#fefefe" d="M -0.5,-0.5 C 170.167,-0.5 340.833,-0.5 511.5,-0.5C 511.5,170.167 511.5,340.833 511.5,511.5C 340.833,511.5 170.167,511.5 -0.5,511.5C -0.5,340.833 -0.5,170.167 -0.5,-0.5 Z"/></g>
<g><path style="opacity:1" fill="#d0d0d0" d="M 489.5,73.5 C 333.332,73.167 177.332,73.5004 21.5,74.5C 20.5005,194.999 20.1671,315.666 20.5,436.5C 19.5005,315.668 19.1671,194.668 19.5,73.5C 176.264,72.1677 332.931,72.1677 489.5,73.5 Z"/></g>
<g><path style="opacity:1" fill="#343434" d="M 21.5,74.5 C 177.5,74.5 333.5,74.5 489.5,74.5C 489.5,195.167 489.5,315.833 489.5,436.5C 333.5,436.5 177.5,436.5 21.5,436.5C 21.5,315.833 21.5,195.167 21.5,74.5 Z"/></g>
<g><path style="opacity:1" fill="#e5e5e5" d="M 19.5,73.5 C 19.1671,194.668 19.5005,315.668 20.5,436.5C 176.666,437.5 332.999,437.833 489.5,437.5C 333.001,438.666 176.334,438.833 19.5,438C 18.167,316.402 18.167,194.902 19.5,73.5 Z"/></g>
<g><path style="opacity:1" fill="#010101" d="M 22.5,75.5 C 177.833,75.5 333.167,75.5 488.5,75.5C 488.5,195.5 488.5,315.5 488.5,435.5C 333.167,435.5 177.833,435.5 22.5,435.5C 22.5,315.5 22.5,195.5 22.5,75.5 Z"/></g>
<g><path style="opacity:1" fill="#9f9f9f" d="M 21.5,74.5 C 177.332,73.5004 333.332,73.167 489.5,73.5C 490.833,133.83 491.5,194.496 491.5,255.5C 491.5,316.504 490.833,377.17 489.5,437.5C 489.5,437.167 489.5,436.833 489.5,436.5C 489.5,315.833 489.5,195.167 489.5,74.5C 333.5,74.5 177.5,74.5 21.5,74.5 Z"/></g>
<g><path style="opacity:1" fill="#a1a1a1" d="M 53.5,105.5 C 188.167,105.5 322.833,105.5 457.5,105.5C 458.83,205.294 458.83,304.961 457.5,404.5C 457.833,305.665 457.499,206.999 456.5,108.5C 322.5,107.167 188.5,107.167 54.5,108.5C 54.1667,108.5 53.8333,108.5 53.5,108.5C 53.5,107.833 53.5,107.167 53.5,106.5C 53.5,106.167 53.5,105.833 53.5,105.5 Z"/></g>
<g><path style="opacity:1" fill="#3c3c3c" d="M 53.5,105.5 C 53.5,105.833 53.5,106.167 53.5,106.5C 52.5006,205.665 52.1672,304.999 52.5,404.5C 51.8333,354.834 51.5,305.001 51.5,255C 51.5001,204.829 52.1667,154.996 53.5,105.5 Z"/></g>
<g><path style="opacity:1" fill="#fefefe" d="M 456.5,108.5 C 456.5,206.833 456.5,305.167 456.5,403.5C 322.5,403.5 188.5,403.5 54.5,403.5C 54.5,305.167 54.5,206.833 54.5,108.5C 188.5,107.167 322.5,107.167 456.5,108.5 Z"/></g>
<g><path style="opacity:1" fill="#3c3c3c" d="M 457.5,105.5 C 458.117,105.611 458.617,105.944 459,106.5C 459.167,156.333 459.333,206.167 459.5,256C 459.5,306.171 458.833,356.004 457.5,405.5C 457.5,405.167 457.5,404.833 457.5,404.5C 458.83,304.961 458.83,205.294 457.5,105.5 Z"/></g>
<g><path style="opacity:1" fill="#cbcbcb" d="M 53.5,108.5 C 53.8333,108.5 54.1667,108.5 54.5,108.5C 54.5,206.833 54.5,305.167 54.5,403.5C 188.5,403.5 322.5,403.5 456.5,403.5C 456.5,305.167 456.5,206.833 456.5,108.5C 457.499,206.999 457.833,305.665 457.5,404.5C 322.833,404.5 188.167,404.5 53.5,404.5C 53.5,305.833 53.5,207.167 53.5,108.5 Z"/></g>
<g><path style="opacity:1" fill="#ababab" d="M 319.5,361.5 C 319.833,361.5 320.167,361.5 320.5,361.5C 352.167,361.5 383.833,361.5 415.5,361.5C 399.848,362.833 383.848,363.499 367.5,363.5C 351.152,363.499 335.152,362.833 319.5,361.5 Z"/></g>
<g><path style="opacity:1" fill="#ababab" d="M 95.5,361.5 C 159.5,361.5 223.5,361.5 287.5,361.5C 255.84,362.833 223.84,363.5 191.5,363.5C 159.16,363.5 127.16,362.833 95.5,361.5 Z"/></g>
<g><path style="opacity:1" fill="#2c2c2c" d="M 414.5,331.5 C 414.833,331.5 415.167,331.5 415.5,331.5C 415.5,341.5 415.5,351.5 415.5,361.5C 383.833,361.5 352.167,361.5 320.5,361.5C 320.5,361.167 320.5,360.833 320.5,360.5C 351.833,360.5 383.167,360.5 414.5,360.5C 414.5,350.833 414.5,341.167 414.5,331.5 Z"/></g>
<g><path style="opacity:1" fill="#3d3d3d" d="M 361.5,329.5 C 361.833,329.5 362.167,329.5 362.5,329.5C 362.833,329.5 363.167,329.5 363.5,329.5C 380.5,330.167 397.5,330.833 414.5,331.5C 397.163,331.667 379.83,331.5 362.5,331C 361.944,330.617 361.611,330.117 361.5,329.5 Z"/></g>
<g><path style="opacity:1" fill="#7f7f7f" d="M 363.5,329.5 C 380.833,329.5 398.167,329.5 415.5,329.5C 415.5,330.167 415.5,330.833 415.5,331.5C 415.167,331.5 414.833,331.5 414.5,331.5C 397.5,330.833 380.5,330.167 363.5,329.5 Z"/></g>
<g><path style="opacity:1" fill="#d6d6d6" d="M 363.5,319.5 C 366.5,319.5 369.5,319.5 372.5,319.5C 370.052,320.473 367.385,320.806 364.5,320.5C 364.5,323.167 364.5,325.833 364.5,328.5C 381.675,328.17 398.675,328.503 415.5,329.5C 398.167,329.5 380.833,329.5 363.5,329.5C 363.167,329.5 362.833,329.5 362.5,329.5C 362.253,326.061 362.586,322.728 363.5,319.5 Z"/></g>
<g><path style="opacity:1" fill="#7d7d7d" d="M 361.5,319.5 C 362.167,319.5 362.833,319.5 363.5,319.5C 362.586,322.728 362.253,326.061 362.5,329.5C 362.167,329.5 361.833,329.5 361.5,329.5C 361.5,326.167 361.5,322.833 361.5,319.5 Z"/></g>
<g><path style="opacity:1" fill="#3e3e3e" d="M 319.5,319.5 C 322.833,319.5 326.167,319.5 329.5,319.5C 326.713,320.477 323.713,320.81 320.5,320.5C 320.5,333.833 320.5,347.167 320.5,360.5C 320.5,360.833 320.5,361.167 320.5,361.5C 320.167,361.5 319.833,361.5 319.5,361.5C 319.5,347.5 319.5,333.5 319.5,319.5 Z"/></g>
<g><path style="opacity:1" fill="#d7d7d7" d="M 383.5,309.5 C 380.713,310.477 377.713,310.81 374.5,310.5C 374.81,313.713 374.477,316.713 373.5,319.5C 373.5,316.167 373.5,312.833 373.5,309.5C 376.833,309.5 380.167,309.5 383.5,309.5 Z"/></g>
<g><path style="opacity:1" fill="#4c4c4c" d="M 383.5,287.5 C 383.5,294.5 383.5,301.5 383.5,308.5C 383.5,308.833 383.5,309.167 383.5,309.5C 380.167,309.5 376.833,309.5 373.5,309.5C 373.5,312.833 373.5,316.167 373.5,319.5C 373.167,319.5 372.833,319.5 372.5,319.5C 369.5,319.5 366.5,319.5 363.5,319.5C 362.833,319.5 362.167,319.5 361.5,319.5C 364.625,318.521 367.958,318.187 371.5,318.5C 371.335,315.15 371.502,311.817 372,308.5C 375.394,307.544 378.894,307.211 382.5,307.5C 382.176,300.646 382.509,293.979 383.5,287.5 Z"/></g>
<g><path style="opacity:1" fill="#474747" d="M 330.5,309.5 C 333.833,309.5 337.167,309.5 340.5,309.5C 337.713,310.477 334.713,310.81 331.5,310.5C 332.055,314.012 331.388,317.012 329.5,319.5C 329.187,315.958 329.521,312.625 330.5,309.5 Z"/></g>
<g><path style="opacity:1" fill="#c1c1c1" d="M 383.5,287.5 C 386.833,287.5 390.167,287.5 393.5,287.5C 390.713,288.477 387.713,288.81 384.5,288.5C 384.824,295.354 384.491,302.021 383.5,308.5C 383.5,301.5 383.5,294.5 383.5,287.5 Z"/></g>
<g><path style="opacity:1" fill="#2c2c2c" d="M 351.5,287.5 C 348.713,288.477 345.713,288.81 342.5,288.5C 343.128,295.913 342.461,302.913 340.5,309.5C 340.5,309.167 340.5,308.833 340.5,308.5C 341.491,301.687 341.825,294.687 341.5,287.5C 344.833,287.5 348.167,287.5 351.5,287.5 Z"/></g>
<g><path style="opacity:1" fill="#b2b2b2" d="M 339.5,287.5 C 339.833,287.5 340.167,287.5 340.5,287.5C 340.5,294.5 340.5,301.5 340.5,308.5C 340.5,308.833 340.5,309.167 340.5,309.5C 337.167,309.5 333.833,309.5 330.5,309.5C 332.988,307.612 335.988,306.945 339.5,307.5C 339.5,300.833 339.5,294.167 339.5,287.5 Z"/></g>
<g><path style="opacity:1" fill="#e1e1e1" d="M 339.5,287.5 C 339.5,294.167 339.5,300.833 339.5,307.5C 335.988,306.945 332.988,307.612 330.5,309.5C 329.521,312.625 329.187,315.958 329.5,319.5C 326.167,319.5 322.833,319.5 319.5,319.5C 322.287,318.523 325.287,318.19 328.5,318.5C 328.241,314.76 328.574,311.094 329.5,307.5C 332.428,306.516 335.428,306.183 338.5,306.5C 338.177,299.978 338.51,293.645 339.5,287.5 Z"/></g>
<g><path style="opacity:1" fill="#373737" d="M 393.5,277.5 C 393.5,280.833 393.5,284.167 393.5,287.5C 390.167,287.5 386.833,287.5 383.5,287.5C 386.287,286.523 389.287,286.19 392.5,286.5C 392.19,283.287 392.523,280.287 393.5,277.5 Z"/></g>
<g><path style="opacity:1" fill="#a2a2a2" d="M 351.5,276.5 C 354.833,276.5 358.167,276.5 361.5,276.5C 361.5,276.833 361.5,277.167 361.5,277.5C 358.167,277.5 354.833,277.5 351.5,277.5C 351.5,280.833 351.5,284.167 351.5,287.5C 348.167,287.5 344.833,287.5 341.5,287.5C 341.825,294.687 341.491,301.687 340.5,308.5C 340.5,301.5 340.5,294.5 340.5,287.5C 343.625,286.521 346.958,286.187 350.5,286.5C 350.187,282.958 350.521,279.625 351.5,276.5 Z"/></g>
<g><path style="opacity:1" fill="#aaaaaa" d="M 404.5,276.5 C 404.5,276.833 404.5,277.167 404.5,277.5C 401.713,278.477 398.713,278.81 395.5,278.5C 396.055,282.012 395.388,285.012 393.5,287.5C 393.5,284.167 393.5,280.833 393.5,277.5C 397.064,276.577 400.731,276.244 404.5,276.5 Z"/></g>
<g><path style="opacity:1" fill="#363636" d="M 361.5,277.5 C 358.713,278.477 355.713,278.81 352.5,278.5C 352.81,281.713 352.477,284.713 351.5,287.5C 351.5,284.167 351.5,280.833 351.5,277.5C 354.833,277.5 358.167,277.5 361.5,277.5 Z"/></g>
<g><path style="opacity:1" fill="#d2d2d2" d="M 415.5,255.5 C 412.713,256.477 409.713,256.81 406.5,256.5C 407.128,263.913 406.461,270.913 404.5,277.5C 404.5,277.167 404.5,276.833 404.5,276.5C 405.491,269.687 405.825,262.687 405.5,255.5C 408.833,255.5 412.167,255.5 415.5,255.5 Z"/></g>
<g><path style="opacity:1" fill="#3a3a3a" d="M 363.5,256.5 C 364.128,263.913 363.461,270.913 361.5,277.5C 361.5,277.167 361.5,276.833 361.5,276.5C 362.167,269.833 362.833,263.167 363.5,256.5 Z"/></g>
<g><path style="opacity:1" fill="#3d3d3d" d="M 404.5,255.5 C 404.5,262.5 404.5,269.5 404.5,276.5C 400.731,276.244 397.064,276.577 393.5,277.5C 396.337,275.598 399.671,274.931 403.5,275.5C 403.176,268.646 403.509,261.979 404.5,255.5 Z"/></g>
<g><path style="opacity:1" fill="#7e7e7e" d="M 361.5,255.5 C 362.167,255.5 362.833,255.5 363.5,255.5C 363.5,255.833 363.5,256.167 363.5,256.5C 362.833,263.167 362.167,269.833 361.5,276.5C 361.5,269.5 361.5,262.5 361.5,255.5 Z"/></g>
<g><path style="opacity:1" fill="#d1d1d1" d="M 361.5,255.5 C 361.5,262.5 361.5,269.5 361.5,276.5C 358.167,276.5 354.833,276.5 351.5,276.5C 354.287,275.523 357.287,275.19 360.5,275.5C 360.176,268.646 360.509,261.979 361.5,255.5 Z"/></g>
<g><path style="opacity:1" fill="#d1d1d1" d="M 319.5,245.5 C 337.167,245.5 354.833,245.5 372.5,245.5C 372.5,248.833 372.5,252.167 372.5,255.5C 369.5,255.5 366.5,255.5 363.5,255.5C 362.833,255.5 362.167,255.5 361.5,255.5C 364.625,254.521 367.958,254.187 371.5,254.5C 371.5,251.833 371.5,249.167 371.5,246.5C 353.992,246.83 336.659,246.497 319.5,245.5 Z"/></g>
<g><path style="opacity:1" fill="#7e7e7e" d="M 319.5,245.5 C 319.5,245.167 319.5,244.833 319.5,244.5C 337.167,244.5 354.833,244.5 372.5,244.5C 373.833,248.167 373.833,251.833 372.5,255.5C 372.5,252.167 372.5,248.833 372.5,245.5C 354.833,245.5 337.167,245.5 319.5,245.5 Z"/></g>
<g><path style="opacity:1" fill="#aaaaaa" d="M 415.5,255.5 C 415.829,241.323 415.496,227.323 414.5,213.5C 382.833,213.5 351.167,213.5 319.5,213.5C 319.5,223.833 319.5,234.167 319.5,244.5C 318.506,234.013 318.172,223.346 318.5,212.5C 351.167,212.5 383.833,212.5 416.5,212.5C 416.829,227.01 416.496,241.343 415.5,255.5 Z"/></g>
<g><path style="opacity:1" fill="#353535" d="M 414.5,213.5 C 414.5,213.833 414.5,214.167 414.5,214.5C 383.167,214.5 351.833,214.5 320.5,214.5C 320.5,224.167 320.5,233.833 320.5,243.5C 338.008,243.17 355.341,243.503 372.5,244.5C 354.833,244.5 337.167,244.5 319.5,244.5C 319.5,234.167 319.5,223.833 319.5,213.5C 351.167,213.5 382.833,213.5 414.5,213.5 Z"/></g>
<g><path style="opacity:1" fill="#4c4c4c" d="M 414.5,213.5 C 415.496,227.323 415.829,241.323 415.5,255.5C 412.167,255.5 408.833,255.5 405.5,255.5C 405.825,262.687 405.491,269.687 404.5,276.5C 404.5,269.5 404.5,262.5 404.5,255.5C 407.625,254.521 410.958,254.187 414.5,254.5C 414.5,241.167 414.5,227.833 414.5,214.5C 414.5,214.167 414.5,213.833 414.5,213.5 Z"/></g>
<g><path style="opacity:1" fill="#000000" d="M 414.5,214.5 C 414.5,227.833 414.5,241.167 414.5,254.5C 410.958,254.187 407.625,254.521 404.5,255.5C 403.509,261.979 403.176,268.646 403.5,275.5C 399.671,274.931 396.337,275.598 393.5,277.5C 392.523,280.287 392.19,283.287 392.5,286.5C 389.287,286.19 386.287,286.523 383.5,287.5C 382.509,293.979 382.176,300.646 382.5,307.5C 378.894,307.211 375.394,307.544 372,308.5C 371.502,311.817 371.335,315.15 371.5,318.5C 367.958,318.187 364.625,318.521 361.5,319.5C 361.5,322.833 361.5,326.167 361.5,329.5C 361.611,330.117 361.944,330.617 362.5,331C 379.83,331.5 397.163,331.667 414.5,331.5C 414.5,341.167 414.5,350.833 414.5,360.5C 383.167,360.5 351.833,360.5 320.5,360.5C 320.5,347.167 320.5,333.833 320.5,320.5C 323.713,320.81 326.713,320.477 329.5,319.5C 331.388,317.012 332.055,314.012 331.5,310.5C 334.713,310.81 337.713,310.477 340.5,309.5C 342.461,302.913 343.128,295.913 342.5,288.5C 345.713,288.81 348.713,288.477 351.5,287.5C 352.477,284.713 352.81,281.713 352.5,278.5C 355.713,278.81 358.713,278.477 361.5,277.5C 363.461,270.913 364.128,263.913 363.5,256.5C 363.5,256.167 363.5,255.833 363.5,255.5C 366.5,255.5 369.5,255.5 372.5,255.5C 373.833,251.833 373.833,248.167 372.5,244.5C 355.341,243.503 338.008,243.17 320.5,243.5C 320.5,233.833 320.5,224.167 320.5,214.5C 351.833,214.5 383.167,214.5 414.5,214.5 Z"/></g>
<g><path style="opacity:1" fill="#b0b0b0" d="M 287.5,361.5 C 287.5,290.833 287.5,220.167 287.5,149.5C 223.5,149.5 159.5,149.5 95.5,149.5C 95.5,220.167 95.5,290.833 95.5,361.5C 94.5008,290.669 94.1675,219.669 94.5,148.5C 159.167,148.5 223.833,148.5 288.5,148.5C 288.833,219.669 288.499,290.669 287.5,361.5 Z"/></g>
<g><path style="opacity:1" fill="#353535" d="M 287.5,361.5 C 223.5,361.5 159.5,361.5 95.5,361.5C 95.5,290.833 95.5,220.167 95.5,149.5C 159.5,149.5 223.5,149.5 287.5,149.5C 287.5,220.167 287.5,290.833 287.5,361.5 Z"/></g>
<g><path style="opacity:1" fill="#000000" d="M 96.5,150.5 C 159.833,150.5 223.167,150.5 286.5,150.5C 286.5,220.5 286.5,290.5 286.5,360.5C 223.167,360.5 159.833,360.5 96.5,360.5C 96.5,290.5 96.5,220.5 96.5,150.5 Z"/></g>
<g><path style="opacity:1" fill="#3b3b3b" d="M 169.5,329.5 C 169.833,329.5 170.167,329.5 170.5,329.5C 184.598,330.822 198.598,330.822 212.5,329.5C 212.833,329.5 213.167,329.5 213.5,329.5C 206.699,330.831 199.533,331.497 192,331.5C 184.833,331.333 177.667,331.167 170.5,331C 169.944,330.617 169.611,330.117 169.5,329.5 Z"/></g>
<g><path style="opacity:1" fill="#2a2a2a" d="M 223.5,255.5 C 220.713,256.477 217.713,256.81 214.5,256.5C 214.831,281.006 214.498,305.339 213.5,329.5C 213.5,304.833 213.5,280.167 213.5,255.5C 216.833,255.5 220.167,255.5 223.5,255.5 Z"/></g>
<g><path style="opacity:1" fill="#e8e8e8" d="M 171.5,255.5 C 174.5,255.5 177.5,255.5 180.5,255.5C 178.052,256.473 175.385,256.806 172.5,256.5C 172.5,280.5 172.5,304.5 172.5,328.5C 171.502,304.672 171.169,280.672 171.5,256.5C 171.5,256.167 171.5,255.833 171.5,255.5 Z"/></g>
<g><path style="opacity:1" fill="#bababa" d="M 212.5,255.5 C 212.5,280.167 212.5,304.833 212.5,329.5C 198.598,330.822 184.598,330.822 170.5,329.5C 170.169,304.994 170.502,280.661 171.5,256.5C 171.169,280.672 171.502,304.672 172.5,328.5C 185.5,328.5 198.5,328.5 211.5,328.5C 211.169,303.994 211.502,279.661 212.5,255.5 Z"/></g>
<g><path style="opacity:1" fill="#7e7e7e" d="M 169.5,255.5 C 170.167,255.5 170.833,255.5 171.5,255.5C 171.5,255.833 171.5,256.167 171.5,256.5C 170.502,280.661 170.169,304.994 170.5,329.5C 170.167,329.5 169.833,329.5 169.5,329.5C 169.5,304.833 169.5,280.167 169.5,255.5 Z"/></g>
<g><path style="opacity:1" fill="#a4a4a4" d="M 223.5,244.5 C 223.5,244.833 223.5,245.167 223.5,245.5C 223.5,248.833 223.5,252.167 223.5,255.5C 220.167,255.5 216.833,255.5 213.5,255.5C 213.5,280.167 213.5,304.833 213.5,329.5C 213.167,329.5 212.833,329.5 212.5,329.5C 212.5,304.833 212.5,280.167 212.5,255.5C 215.625,254.521 218.958,254.187 222.5,254.5C 222.187,250.958 222.521,247.625 223.5,244.5 Z"/></g>
<g><path style="opacity:1" fill="#d7d7d7" d="M 191.5,245.5 C 188.713,246.477 185.713,246.81 182.5,246.5C 182.81,249.713 182.477,252.713 181.5,255.5C 181.5,252.167 181.5,248.833 181.5,245.5C 184.833,245.5 188.167,245.5 191.5,245.5 Z"/></g>
<g><path style="opacity:1" fill="#363636" d="M 223.5,245.5 C 226.833,245.5 230.167,245.5 233.5,245.5C 230.713,246.477 227.713,246.81 224.5,246.5C 224.81,249.713 224.477,252.713 223.5,255.5C 223.5,252.167 223.5,248.833 223.5,245.5 Z"/></g>
<g><path style="opacity:1" fill="#4d4d4d" d="M 191.5,233.5 C 191.5,234.167 191.5,234.833 191.5,235.5C 191.5,238.833 191.5,242.167 191.5,245.5C 188.167,245.5 184.833,245.5 181.5,245.5C 181.5,248.833 181.5,252.167 181.5,255.5C 181.167,255.5 180.833,255.5 180.5,255.5C 177.5,255.5 174.5,255.5 171.5,255.5C 170.833,255.5 170.167,255.5 169.5,255.5C 172.625,254.521 175.958,254.187 179.5,254.5C 179.335,251.15 179.502,247.817 180,244.5C 183.394,243.544 186.894,243.211 190.5,243.5C 190.187,239.958 190.521,236.625 191.5,233.5 Z"/></g>
<g><path style="opacity:1" fill="#dcdcdc" d="M 233.5,233.5 C 233.5,237.167 233.5,240.833 233.5,244.5C 230.167,244.5 226.833,244.5 223.5,244.5C 225.988,242.612 228.988,241.945 232.5,242.5C 232.19,239.287 232.523,236.287 233.5,233.5 Z"/></g>
<g><path style="opacity:1" fill="#525252" d="M 244.5,223.5 C 244.833,223.5 245.167,223.5 245.5,223.5C 245.5,226.833 245.5,230.167 245.5,233.5C 242.663,235.402 239.329,236.069 235.5,235.5C 236.069,239.329 235.402,242.663 233.5,245.5C 230.167,245.5 226.833,245.5 223.5,245.5C 223.5,245.167 223.5,244.833 223.5,244.5C 226.833,244.5 230.167,244.5 233.5,244.5C 234.479,241.375 234.813,238.042 234.5,234.5C 238.042,234.813 241.375,234.479 244.5,233.5C 244.5,230.167 244.5,226.833 244.5,223.5 Z"/></g>
<g><path style="opacity:1" fill="#7f7f7f" d="M 233.5,233.5 C 237.167,233.5 240.833,233.5 244.5,233.5C 241.375,234.479 238.042,234.813 234.5,234.5C 234.813,238.042 234.479,241.375 233.5,244.5C 233.5,240.833 233.5,237.167 233.5,233.5 Z"/></g>
<g><path style="opacity:1" fill="#cdcdcd" d="M 203.5,223.5 C 206.5,223.5 209.5,223.5 212.5,223.5C 210.052,224.473 207.385,224.806 204.5,224.5C 204.82,227.898 204.487,231.232 203.5,234.5C 199.906,235.426 196.24,235.759 192.5,235.5C 195.5,234.833 198.5,234.167 201.5,233.5C 202.237,230.275 202.903,226.941 203.5,223.5 Z"/></g>
<g><path style="opacity:1" fill="#7f7f7f" d="M 191.5,233.5 C 194.833,233.5 198.167,233.5 201.5,233.5C 198.5,234.167 195.5,234.833 192.5,235.5C 192.167,235.5 191.833,235.5 191.5,235.5C 191.5,234.833 191.5,234.167 191.5,233.5 Z"/></g>
<g><path style="opacity:1" fill="#d0d0d0" d="M 244.5,223.5 C 244.5,226.833 244.5,230.167 244.5,233.5C 240.833,233.5 237.167,233.5 233.5,233.5C 236.625,232.521 239.958,232.187 243.5,232.5C 243.19,229.287 243.523,226.287 244.5,223.5 Z"/></g>
<g><path style="opacity:1" fill="#272727" d="M 201.5,223.5 C 201.5,226.833 201.5,230.167 201.5,233.5C 198.167,233.5 194.833,233.5 191.5,233.5C 194.287,232.523 197.287,232.19 200.5,232.5C 200.19,229.287 200.523,226.287 201.5,223.5 Z"/></g>
<g><path style="opacity:1" fill="#2e2e2e" d="M 245.5,223.5 C 248.833,223.5 252.167,223.5 255.5,223.5C 252.713,224.477 249.713,224.81 246.5,224.5C 246.81,227.713 246.477,230.713 245.5,233.5C 245.5,230.167 245.5,226.833 245.5,223.5 Z"/></g>
<g><path style="opacity:1" fill="#7f7f7f" d="M 201.5,223.5 C 202.167,223.5 202.833,223.5 203.5,223.5C 202.903,226.941 202.237,230.275 201.5,233.5C 201.5,230.167 201.5,226.833 201.5,223.5 Z"/></g>
<g><path style="opacity:1" fill="#2b2b2b" d="M 137.5,213.5 C 162.5,213.5 187.5,213.5 212.5,213.5C 212.5,216.833 212.5,220.167 212.5,223.5C 209.5,223.5 206.5,223.5 203.5,223.5C 202.833,223.5 202.167,223.5 201.5,223.5C 204.625,222.521 207.958,222.187 211.5,222.5C 211.5,219.833 211.5,217.167 211.5,214.5C 186.661,214.831 161.994,214.498 137.5,213.5 Z"/></g>
<g><path style="opacity:1" fill="#7e7e7e" d="M 137.5,181.5 C 137.833,181.5 138.167,181.5 138.5,181.5C 138.173,191.681 138.506,201.681 139.5,211.5C 163.833,212.167 188.167,212.833 212.5,213.5C 187.5,213.5 162.5,213.5 137.5,213.5C 137.5,202.833 137.5,192.167 137.5,181.5 Z"/></g>
<g><path style="opacity:1" fill="#dadada" d="M 140.5,182.5 C 140.5,191.833 140.5,201.167 140.5,210.5C 164.836,210.333 189.169,210.5 213.5,211C 214.134,213.075 214.468,215.241 214.5,217.5C 214.461,219.952 213.794,221.952 212.5,223.5C 212.5,220.167 212.5,216.833 212.5,213.5C 188.167,212.833 163.833,212.167 139.5,211.5C 139.173,201.652 139.506,191.986 140.5,182.5 Z"/></g>
<g><path style="opacity:1" fill="#585858" d="M 138.5,181.5 C 177.33,180.501 216.33,180.168 255.5,180.5C 256.833,194.833 256.833,209.167 255.5,223.5C 255.5,209.5 255.5,195.5 255.5,181.5C 216.5,181.5 177.5,181.5 138.5,181.5 Z"/></g>
<g><path style="opacity:1" fill="#fefefe" d="M 140.5,182.5 C 178.5,182.5 216.5,182.5 254.5,182.5C 254.5,195.833 254.5,209.167 254.5,222.5C 250.958,222.187 247.625,222.521 244.5,223.5C 243.523,226.287 243.19,229.287 243.5,232.5C 239.958,232.187 236.625,232.521 233.5,233.5C 232.523,236.287 232.19,239.287 232.5,242.5C 228.988,241.945 225.988,242.612 223.5,244.5C 222.521,247.625 222.187,250.958 222.5,254.5C 218.958,254.187 215.625,254.521 212.5,255.5C 211.502,279.661 211.169,303.994 211.5,328.5C 198.5,328.5 185.5,328.5 172.5,328.5C 172.5,304.5 172.5,280.5 172.5,256.5C 175.385,256.806 178.052,256.473 180.5,255.5C 180.833,255.5 181.167,255.5 181.5,255.5C 182.477,252.713 182.81,249.713 182.5,246.5C 185.713,246.81 188.713,246.477 191.5,245.5C 191.5,242.167 191.5,238.833 191.5,235.5C 191.833,235.5 192.167,235.5 192.5,235.5C 196.24,235.759 199.906,235.426 203.5,234.5C 204.487,231.232 204.82,227.898 204.5,224.5C 207.385,224.806 210.052,224.473 212.5,223.5C 213.794,221.952 214.461,219.952 214.5,217.5C 214.468,215.241 214.134,213.075 213.5,211C 189.169,210.5 164.836,210.333 140.5,210.5C 140.5,201.167 140.5,191.833 140.5,182.5 Z"/></g>
<g><path style="opacity:1" fill="#cfcfcf" d="M 138.5,181.5 C 177.5,181.5 216.5,181.5 255.5,181.5C 255.5,195.5 255.5,209.5 255.5,223.5C 252.167,223.5 248.833,223.5 245.5,223.5C 245.167,223.5 244.833,223.5 244.5,223.5C 247.625,222.521 250.958,222.187 254.5,222.5C 254.5,209.167 254.5,195.833 254.5,182.5C 216.5,182.5 178.5,182.5 140.5,182.5C 139.506,191.986 139.173,201.652 139.5,211.5C 138.506,201.681 138.173,191.681 138.5,181.5 Z"/></g>
<g><path style="opacity:1" fill="#3c3c3c" d="M 255.5,180.5 C 216.33,180.168 177.33,180.501 138.5,181.5C 138.167,181.5 137.833,181.5 137.5,181.5C 156.822,180.167 176.488,179.5 196.5,179.5C 216.336,179.5 236.003,179.833 255.5,180.5 Z"/></g>
<g><path style="opacity:1" fill="#7f7f7f" d="M 53.5,106.5 C 53.5,107.167 53.5,107.833 53.5,108.5C 53.5,207.167 53.5,305.833 53.5,404.5C 188.167,404.5 322.833,404.5 457.5,404.5C 457.5,404.833 457.5,405.167 457.5,405.5C 322.332,405.833 187.332,405.5 52.5,404.5C 52.1672,304.999 52.5006,205.665 53.5,106.5 Z"/></g>
<g><path style="opacity:1" fill="#7e7e7e" d="M 21.5,74.5 C 21.5,195.167 21.5,315.833 21.5,436.5C 177.5,436.5 333.5,436.5 489.5,436.5C 489.5,436.833 489.5,437.167 489.5,437.5C 332.999,437.833 176.666,437.5 20.5,436.5C 20.1671,315.666 20.5005,194.999 21.5,74.5 Z"/></g>
</svg>
